Coordinates
version=1
nRows=16
nColumns=63
inDegrees=yes

Units are S.I. units (second, meters, Newtons, ...)
If the header above contains a line with 'inDegrees', this indicates whether rotational values are in degrees (yes) or radians (no).

endheader
time	pelvis_tilt	pelvis_list	pelvis_rotation	pelvis_tx	pelvis_ty	pelvis_tz	hip_flexion_r	hip_adduction_r	hip_rotation_r	knee_angle_r	knee_angle_r_beta	ankle_angle_r	subtalar_angle_r	mtp_angle_r	hip_flexion_l	hip_adduction_l	hip_rotation_l	knee_angle_l	knee_angle_l_beta	ankle_angle_l	subtalar_angle_l	mtp_angle_l	L5_S1_Flex_Ext	L5_S1_Lat_Bending	L5_S1_axial_rotation	L4_L5_Flex_Ext	L4_L5_Lat_Bending	L4_L5_axial_rotation	L3_L4_Flex_Ext	L3_L4_Lat_Bending	L3_L4_axial_rotation	L2_L3_Flex_Ext	L2_L3_Lat_Bending	L2_L3_axial_rotation	L1_L2_Flex_Ext	L1_L2_Lat_Bending	L1_L2_axial_rotation	L1_T12_Flex_Ext	L1_T12_Lat_Bending	L1_T12_axial_rotation	Abs_r3	Abs_r2	Abs_r1	Abs_t1	Abs_t2	neck_flexion	neck_bending	neck_rotation	arm_flex_r	arm_add_r	arm_rot_r	elbow_flex_r	pro_sup_r	wrist_flex_r	wrist_dev_r	arm_flex_l	arm_add_l	arm_rot_l	elbow_flex_l	pro_sup_l	wrist_flex_l	wrist_dev_l
6.593220	-4.109030	4.074299	88.461114	0.257247	0.866466	0.728365	-2.082917	-1.499713	-2.943960	9.696613	0.169238	30.939865	4.773064	0.000000	-1.653209	1.138087	-4.941950	8.929829	0.155855	31.522700	6.243250	0.000000	-0.474993	-0.007057	-0.396972	-0.882109	-0.009386	-0.421783	-0.780366	-0.017159	-0.421783	-0.542869	-0.017159	-0.347351	-0.441078	-0.014391	-0.322540	-0.271411	-0.010932	-0.297729	-3.392826	-0.079832	-2.207841	0.000000	0.000000	11.339462	17.115736	22.740340	121.447178	-16.749603	24.305142	131.430424	29.182760	-25.254028	17.479551	-21.185356	-47.206526	39.262864	105.503138	89.391880	1.209251	3.217525
6.610169	-4.142948	4.112854	88.319491	0.257779	0.866672	0.727821	-2.154583	-1.529838	-2.846969	9.662360	0.168640	30.897214	4.890478	0.000000	-1.796359	1.182997	-4.794834	8.854126	0.154534	31.315561	5.878019	0.000000	-0.476955	-0.006640	-0.362074	-0.885753	-0.008831	-0.384703	-0.783589	-0.016145	-0.384703	-0.545112	-0.016145	-0.316815	-0.442900	-0.013540	-0.294185	-0.272532	-0.010285	-0.271555	-3.406842	-0.075114	-2.013746	0.000000	0.000000	11.403381	16.941392	22.914185	120.976632	-16.601711	24.840037	131.133059	29.329808	-24.852478	17.275980	-21.098955	-47.102085	39.403935	105.317972	89.399588	1.453324	3.109155
6.627119	-4.169280	4.125115	88.289303	0.258169	0.866872	0.727268	-2.215870	-1.543623	-2.817574	9.621329	0.167924	30.842845	4.945955	0.000000	-1.884766	1.205068	-4.650495	8.809289	0.153751	31.175163	5.667040	0.000000	-0.477487	-0.005620	-0.341239	-0.886740	-0.007474	-0.362567	-0.784463	-0.013664	-0.362567	-0.545719	-0.013664	-0.298584	-0.443394	-0.011460	-0.277257	-0.272836	-0.008705	-0.255929	-3.410639	-0.063572	-1.897870	0.000000	0.000000	11.517559	16.752869	23.006444	120.517593	-16.494157	25.456398	130.750485	29.269491	-24.192622	16.821551	-20.942414	-47.095430	39.644372	105.203065	89.403660	1.624395	3.074944
6.644068	-4.183149	4.117127	88.360064	0.258406	0.867065	0.726721	-2.269338	-1.538564	-2.849493	9.578259	0.167172	30.784700	4.951361	0.000000	-1.923967	1.201443	-4.506785	8.794693	0.153496	31.110050	5.592864	0.000000	-0.477343	-0.002590	-0.333243	-0.886473	-0.003445	-0.354071	-0.784227	-0.006297	-0.354071	-0.545555	-0.006297	-0.291588	-0.443261	-0.005282	-0.270760	-0.272754	-0.004012	-0.249932	-3.409612	-0.029299	-1.853398	0.000000	0.000000	11.671327	16.513182	22.999349	120.133856	-16.428378	26.145163	130.317799	28.979567	-23.339221	16.106302	-20.675211	-47.160693	40.028640	105.146736	89.406673	1.687920	3.144900
6.661017	-4.193297	4.091613	88.524096	0.258536	0.867251	0.726191	-2.319523	-1.520365	-2.930191	9.526456	0.166268	30.728028	4.889281	0.000000	-1.919808	1.178738	-4.384351	8.804422	0.153666	31.122349	5.672663	0.000000	-0.477286	0.000819	-0.349193	-0.886368	0.001089	-0.371018	-0.784133	0.001991	-0.371018	-0.545490	0.001991	-0.305544	-0.443208	0.001670	-0.283719	-0.272721	0.001268	-0.261895	-3.409208	0.009262	-1.942107	0.000000	0.000000	11.843534	16.274506	22.974840	119.799823	-16.340862	26.812898	129.865750	28.574295	-22.317927	15.219750	-20.427959	-47.268251	40.406291	105.132491	89.408883	1.638645	3.210521
6.677966	-4.181400	4.044650	88.728964	0.258537	0.867404	0.725690	-2.339089	-1.490102	-3.154124	9.502638	0.165852	30.726774	4.969653	0.000000	-1.875793	1.131875	-4.243021	8.827028	0.154061	31.197383	5.782606	0.000000	-0.477483	0.008775	-0.370199	-0.886733	0.011671	-0.393336	-0.784456	0.021335	-0.393336	-0.545715	0.021335	-0.323924	-0.443390	0.017894	-0.300786	-0.272834	0.013592	-0.277649	-3.410610	0.099264	-2.058934	0.000000	0.000000	12.059040	16.003351	22.908041	119.633638	-16.288318	27.524453	129.423191	27.757884	-21.251476	14.201127	-20.027664	-47.411578	41.052811	105.079556	89.414515	1.044201	2.889982
6.694915	-4.158001	3.980894	89.009626	0.258435	0.867530	0.725213	-2.354672	-1.432756	-3.334082	9.466476	0.165221	30.706776	4.876602	0.000000	-1.789323	1.056670	-4.176168	8.877559	0.154943	31.345070	6.081086	0.000000	-0.478370	0.019008	-0.412056	-0.888381	0.025281	-0.437809	-0.785914	0.046216	-0.437809	-0.546729	0.046216	-0.360549	-0.444214	0.038761	-0.334795	-0.273341	0.029443	-0.309042	-3.416948	0.215022	-2.291730	0.000000	0.000000	12.296421	15.708984	22.813022	119.581162	-16.199283	28.200006	128.979442	26.876884	-20.141095	13.132746	-19.630099	-47.548058	41.675370	105.038045	89.422732	0.378771	2.513513
6.711864	-4.128136	3.907364	89.341602	0.258243	0.867634	0.724750	-2.373056	-1.357136	-3.455635	9.414392	0.164312	30.671700	4.629845	0.000000	-1.680886	0.963903	-4.160435	8.936608	0.155973	31.529780	6.521051	0.000000	-0.480395	0.030675	-0.464903	-0.892141	0.040798	-0.493959	-0.789240	0.074584	-0.493959	-0.549043	0.074584	-0.406790	-0.446094	0.062553	-0.377734	-0.274497	0.047516	-0.348677	-3.431410	0.347005	-2.585651	0.000000	0.000000	12.559667	15.409268	22.663333	119.635844	-16.108610	28.832013	128.536373	25.809217	-18.977319	12.016961	-19.199348	-47.676898	42.295163	105.007930	89.433620	-0.309217	2.109539
6.728814	-4.093890	3.826146	89.704840	0.258021	0.867715	0.724314	-2.396011	-1.260339	-3.456205	9.339255	0.163001	30.604512	4.171706	0.000000	-1.551826	0.854397	-4.220709	9.011619	0.157282	31.741382	7.099621	0.000000	-0.483520	0.043024	-0.526485	-0.897945	0.057222	-0.559390	-0.794375	0.104608	-0.559390	-0.552615	0.104608	-0.460674	-0.448997	0.087734	-0.427769	-0.276283	0.066644	-0.394864	-3.453735	0.486694	-2.928151	0.000000	0.000000	12.838834	15.123081	22.474969	119.750714	-15.999723	29.389464	128.111937	24.720494	-17.833210	10.899062	-18.794103	-47.786332	42.872650	104.956802	89.446470	-1.131256	1.466884
6.745763	-4.058537	3.751148	90.101311	0.257760	0.867794	0.723924	-2.433838	-1.155827	-3.446550	9.250266	0.161448	30.525916	3.650737	0.000000	-1.423619	0.744352	-4.216777	9.087117	0.158600	31.937518	7.631768	0.000000	-0.488867	0.055380	-0.592336	-0.907874	0.073656	-0.629357	-0.803159	0.134652	-0.629357	-0.558726	0.134652	-0.518294	-0.453961	0.112932	-0.481273	-0.279338	0.085784	-0.444252	-3.491925	0.626474	-3.294395	0.000000	0.000000	13.119319	14.853099	22.228214	119.892956	-15.894217	29.840553	127.725210	23.670644	-16.733833	9.878128	-18.369663	-47.900524	43.443710	104.913619	89.460789	-2.001614	0.757017
6.762712	-4.033985	3.683985	90.476652	0.257547	0.867874	0.723590	-2.477891	-1.060727	-3.404672	9.153260	0.159755	30.434667	3.107736	0.000000	-1.309706	0.650807	-4.175933	9.147506	0.159654	32.098948	8.081714	0.000000	-0.495181	0.066190	-0.652881	-0.919600	0.088032	-0.693686	-0.813532	0.160934	-0.693686	-0.565942	0.160934	-0.571271	-0.459825	0.134974	-0.530466	-0.282946	0.102528	-0.489661	-3.537025	0.748752	-3.631128	0.000000	0.000000	13.385545	14.606236	21.954030	120.011587	-15.771565	30.137849	127.402487	22.799326	-15.744805	9.067879	-17.964037	-48.023912	43.996171	104.854759	89.475453	-2.973304	-0.124657
6.779661	-4.034307	3.638748	90.825339	0.257465	0.867973	0.723324	-2.544322	-0.989698	-3.372425	9.042285	0.157818	30.340437	2.614540	0.000000	-1.224655	0.580483	-4.150590	9.195984	0.160500	32.224819	8.518948	0.000000	-0.502850	0.072477	-0.716932	-0.933843	0.096395	-0.761740	-0.826133	0.176221	-0.761740	-0.574708	0.176221	-0.627315	-0.466947	0.147795	-0.582507	-0.287329	0.112267	-0.537699	-3.591810	0.819876	-3.987359	0.000000	0.000000	13.579773	14.411184	21.719093	120.014966	-15.574724	30.233276	127.153698	22.521757	-14.898639	8.536455	-17.756252	-48.122870	44.231902	104.838942	89.490275	-3.556541	-0.787294
6.796610	-4.060781	3.624281	91.122415	0.257554	0.868105	0.723122	-2.639303	-0.943146	-3.294695	8.918605	0.155659	30.233839	2.133197	0.000000	-1.182773	0.536348	-4.166654	9.228540	0.161068	32.312703	8.942466	0.000000	-0.511684	0.074243	-0.777352	-0.950248	0.098744	-0.825936	-0.840645	0.180515	-0.825936	-0.584803	0.180515	-0.680183	-0.475149	0.151397	-0.631598	-0.292376	0.115003	-0.583014	-3.654905	0.839855	-4.323398	0.000000	0.000000	13.689060	14.256360	21.536056	119.878577	-15.307810	30.150632	126.976060	22.985306	-14.160331	8.330142	-17.687555	-48.212890	44.232262	104.866662	89.503751	-3.720055	-1.107938
6.813559	-4.113058	3.637960	91.340602	0.257876	0.868252	0.722993	-2.755708	-0.920734	-3.150664	8.781840	0.153272	30.110348	1.664042	0.000000	-1.184759	0.518403	-4.232225	9.240316	0.161274	32.358420	9.330905	0.000000	-0.521373	0.070219	-0.826205	-0.968241	0.093392	-0.877843	-0.856563	0.170731	-0.877843	-0.595877	0.170731	-0.722930	-0.484147	0.143191	-0.671292	-0.297912	0.108770	-0.619654	-3.724114	0.794335	-4.595105	0.000000	0.000000	13.738618	14.160308	21.341230	119.587524	-15.004623	29.891863	126.899035	24.467859	-13.543993	8.536971	-17.735872	-48.306280	44.014527	104.945210	89.509416	-3.406428	-1.036398
6.830508	-4.193869	3.669313	91.492847	0.258335	0.868419	0.722850	-2.892399	-0.932834	-2.988324	8.626007	0.150552	29.987388	1.274882	0.000000	-1.226088	0.536294	-4.331550	9.224279	0.160994	32.353279	9.671143	0.000000	-0.529287	0.063013	-0.871455	-0.982939	0.083808	-0.925921	-0.869566	0.153211	-0.925921	-0.604922	0.153211	-0.762523	-0.491496	0.128497	-0.708057	-0.302435	0.097608	-0.653592	-3.780646	0.712821	-4.846773	0.000000	0.000000	13.666244	14.078390	21.345968	119.138489	-14.623944	29.551373	126.878857	26.578176	-12.955048	9.021336	-17.923288	-48.384501	43.635845	105.029873	89.516493	-2.792080	-0.700266
6.847458	-4.302334	3.710929	91.579152	0.258949	0.868581	0.722682	-3.041665	-0.974673	-2.767509	8.452326	0.147521	29.859499	0.902808	0.000000	-1.296514	0.588136	-4.457242	9.184839	0.160306	32.303088	9.952847	0.000000	-0.535907	0.050647	-0.911808	-0.995233	0.067360	-0.968796	-0.880441	0.123142	-0.968796	-0.612488	0.123142	-0.797832	-0.497643	0.103278	-0.740844	-0.306217	0.078452	-0.683856	-3.827929	0.572924	-5.071200	0.000000	0.000000	13.529290	14.037454	21.421974	118.540628	-14.202280	29.125159	126.930330	29.858531	-12.460590	9.733154	-18.286214	-48.425713	42.971630	105.176331	89.521664	-1.571578	0.184103
